<svg xml:space="preserve" style="max-height: 500px" viewBox="0 0 110.84 40" y="0px" x="0px" xmlns:xlink="http://www.w3.org/1999/xlink" xmlns="http://www.w3.org/2000/svg" id="Layer_1" version="1.1" width="110.84" height="40">
<style type="text/css">

	.st0{fill:#17288E;}
	.st1{fill:url(#SVGID_1_);}
	.st2{fill:url(#SVGID_2_);}
	.st3{fill:url(#SVGID_3_);}
	.st4{fill:#FF0000;}
	.st5{fill:#FFFFFF;}
	.st6{fill:#333333;}
	.st7{fill:#3967AD;}
	.st8{fill:none;stroke:#000000;stroke-width:0.2999;}

</style>
<path d="M124.5,36.9c-0.7-0.4-1.5-0.6-2.5-0.9c-1-0.2-1.7-0.4-2.2-0.7c-0.5-0.2-0.8-0.6-0.8-1c0-0.4,0.3-0.8,0.9-1.1&#10;&#9;c0.6-0.3,1.4-0.5,2.5-0.5c0.5,0,1,0,1.4,0.2c0.3,0.1,0.6,0.1,0.9,0.1s0.5-0.1,0.7-0.3l0.3,1.6l-0.4,0.1c-0.4-0.5-0.8-0.9-1.1-1.1&#10;&#9;c-0.5-0.2-1.1-0.3-1.9-0.3c-0.8,0-1.3,0.1-1.6,0.3c-0.5,0.2-0.7,0.5-0.7,0.9c0,0.4,0.2,0.6,0.7,0.8c0.2,0.1,0.9,0.2,1.9,0.5&#10;&#9;c1.2,0.3,2.1,0.6,2.8,1c0.5,0.3,0.8,0.7,0.8,1.1c0,0.5-0.3,0.9-0.9,1.2c-0.6,0.3-1.5,0.5-2.6,0.5c-0.6,0-1.1-0.1-1.5-0.2&#10;&#9;c-0.3-0.1-0.6-0.1-0.8-0.1c-0.3,0-0.6,0.1-0.9,0.3l-0.6-1.9l0.4-0.1c0.4,0.7,0.8,1.1,1.1,1.3c0.6,0.3,1.3,0.4,2.3,0.4&#10;&#9;c0.8,0,1.3-0.1,1.7-0.3c0.5-0.2,0.7-0.6,0.7-1.1C125.2,37.3,125,37.1,124.5,36.9"/>
<path d="M137.4,33.1c1.2,0.6,1.9,1.5,1.9,2.8c0,1.3-0.6,2.2-1.9,2.8c-0.7,0.3-1.4,0.5-2.2,0.5c-0.8,0-1.5-0.2-2.2-0.5&#10;&#9;c-1.2-0.6-1.9-1.5-1.9-2.8c0-1.3,0.6-2.2,1.8-2.8c0.6-0.3,1.4-0.5,2.2-0.5C136.1,32.7,136.8,32.8,137.4,33.1 M133.9,33.2&#10;&#9;c-0.9,0.4-1.4,1.3-1.4,2.8c0,1.5,0.5,2.4,1.4,2.8c0.4,0.2,0.8,0.3,1.3,0.3c0.5,0,0.9-0.1,1.3-0.3c0.9-0.4,1.4-1.3,1.4-2.8&#10;&#9;c0-1.4-0.5-2.3-1.4-2.8c-0.3-0.2-0.8-0.2-1.3-0.2C134.7,33,134.3,33.1,133.9,33.2z"/>
<path d="M146.9,39v0.2h-3.4V39h0.5c0.4,0,0.6-0.1,0.6-0.3v-5.5c0-0.2-0.2-0.3-0.6-0.3h-0.4v-0.2h7.5l0.9,1.4l-0.4,0.1&#10;&#9;c-0.8-0.8-1.8-1.2-3.1-1.2h-2c-0.4,0-0.6,0.1-0.6,0.3v2.4h2.4c0.9,0,1.4-0.2,1.4-0.7v-0.2h0.4V37h-0.4v-0.2c0-0.6-0.5-0.9-1.4-0.9&#10;&#9;h-2.4v2.8c0,0.2,0.2,0.3,0.6,0.3H146.9z"/>
<path d="M161.9,39.2h-3.7V39h0.6c0.4,0,0.6-0.1,0.6-0.3v-5.3c0-0.3-0.2-0.4-0.6-0.4c-1,0-1.7,0.4-2.4,1.2l-0.4,0l0.6-1.4h6.8&#10;&#9;l0.6,1.4l-0.4,0c-0.6-0.8-1.4-1.2-2.2-1.2c-0.6,0-0.9,0.1-0.9,0.4v5.3c0,0.2,0.2,0.3,0.6,0.3h0.6V39.2z"/>
<path d="M177,32.7v0.2h-0.3c-0.2,0-0.4,0.1-0.6,0.3l-1.9,6h-0.4l-1.1-4h-0.1l-1.5,4h-0.4l-1.7-6c0-0.2-0.2-0.3-0.4-0.3h-0.1v-0.2&#10;&#9;h2.4v0.2h-0.2c-0.4,0-0.6,0.1-0.6,0.3l1.1,4.2h0.1l1.2-3.2l-0.2-1c-0.1-0.2-0.3-0.3-0.5-0.3h-0.2v-0.2h2.4v0.2h-0.2&#10;&#9;c-0.4,0-0.5,0.1-0.5,0.3l1.1,4.1h0.1l1.3-4c0-0.3-0.2-0.4-0.6-0.4h-0.2v-0.2H177z"/>
<path d="M186.3,36.9h-3.2l-0.6,1.4c-0.2,0.5,0,0.8,0.6,0.8h0.2v0.2h-2.7V39h0.2c0.3,0,0.6-0.1,0.8-0.4l2.8-5.7l1.1-0.2l2.7,5.9&#10;&#9;c0.2,0.3,0.5,0.4,0.9,0.4h0.2v0.2h-3.1V39h0.3c0.5,0,0.7-0.2,0.5-0.5L186.3,36.9z M184.8,33.5L184.8,33.5l-1.6,3.2h3L184.8,33.5z"/>
<path d="M200.3,33.2c0.5,0.3,0.7,0.6,0.7,1.1c0,0.5-0.3,0.9-0.8,1.1c-0.5,0.3-1.1,0.5-1.8,0.5l2.2,2.8c0.2,0.2,0.4,0.3,0.7,0.3h0.4&#10;&#9;v0.2h-2l-2.4-3.3h-1.6v2.8c0,0.2,0.2,0.3,0.6,0.3h0.4v0.2h-3.3V39h0.4c0.4,0,0.6-0.1,0.6-0.3v-5.5c0-0.2-0.2-0.3-0.6-0.3h-0.4v-0.2&#10;&#9;h4.1C198.8,32.7,199.7,32.9,200.3,33.2 M195.8,35.7h1.6c0.8,0,1.4-0.1,1.9-0.4c0.4-0.2,0.6-0.6,0.6-1c0-0.5-0.2-0.8-0.6-1&#10;&#9;c-0.5-0.2-1.1-0.3-2-0.3h-0.8c-0.4,0-0.6,0.1-0.6,0.3V35.7z"/>
<path d="M206,32.9v-0.2h7l0.8,1.3l-0.4,0.1c-0.8-0.8-1.7-1.1-2.7-1.1h-2c-0.4,0-0.6,0.1-0.6,0.3v2.4h2.1c0.9,0,1.4-0.3,1.4-0.8v-0.2&#10;&#9;h0.4v2.3h-0.4v-0.2c0-0.6-0.5-0.9-1.4-0.9h-2.1v2.9c0,0.2,0.2,0.3,0.6,0.3h1.9c1.4,0,2.4-0.4,3-1.3l0.4,0.1l-0.8,1.5H206V39h0.4&#10;&#9;c0.4,0,0.6-0.1,0.6-0.3v-5.5c0-0.2-0.2-0.3-0.6-0.3H206z"/>
<path d="M236.9,36.9c-0.7-0.4-1.5-0.6-2.5-0.9c-1-0.2-1.7-0.4-2.2-0.7c-0.5-0.2-0.8-0.6-0.8-1c0-0.4,0.3-0.8,0.9-1.1&#10;&#9;c0.6-0.3,1.4-0.5,2.5-0.5c0.5,0,1,0,1.4,0.2c0.3,0.1,0.6,0.1,0.9,0.1c0.2,0,0.5-0.1,0.7-0.3l0.3,1.6l-0.4,0.1&#10;&#9;c-0.4-0.5-0.8-0.9-1.1-1.1c-0.5-0.2-1.1-0.3-1.9-0.3c-0.8,0-1.3,0.1-1.6,0.3c-0.5,0.2-0.7,0.5-0.7,0.9c0,0.4,0.2,0.6,0.7,0.8&#10;&#9;c0.2,0.1,0.9,0.2,1.9,0.5c1.2,0.3,2.1,0.6,2.8,1c0.5,0.3,0.8,0.7,0.8,1.1c0,0.5-0.3,0.9-0.9,1.2c-0.6,0.3-1.5,0.5-2.6,0.5&#10;&#9;c-0.6,0-1.1-0.1-1.5-0.2c-0.3-0.1-0.6-0.1-0.8-0.1c-0.3,0-0.6,0.1-0.9,0.3l-0.6-1.9l0.4-0.1c0.4,0.7,0.8,1.1,1.1,1.3&#10;&#9;c0.6,0.3,1.3,0.4,2.3,0.4c0.8,0,1.3-0.1,1.7-0.3c0.5-0.2,0.7-0.6,0.7-1.1C237.5,37.3,237.3,37.1,236.9,36.9"/>
<path d="M249.7,33.1c1.2,0.6,1.9,1.5,1.9,2.8c0,1.3-0.6,2.2-1.9,2.8c-0.7,0.3-1.4,0.5-2.2,0.5c-0.8,0-1.5-0.2-2.2-0.5&#10;&#9;c-1.2-0.6-1.9-1.5-1.9-2.8c0-1.3,0.6-2.2,1.8-2.8c0.6-0.3,1.4-0.5,2.2-0.5C248.4,32.7,249.1,32.8,249.7,33.1 M246.2,33.2&#10;&#9;c-0.9,0.4-1.4,1.3-1.4,2.8c0,1.5,0.5,2.4,1.4,2.8c0.4,0.2,0.8,0.3,1.3,0.3c0.5,0,0.9-0.1,1.3-0.3c0.9-0.4,1.4-1.3,1.4-2.8&#10;&#9;c0-1.4-0.5-2.3-1.4-2.8c-0.3-0.2-0.8-0.2-1.3-0.2C247,33,246.6,33.1,246.2,33.2z"/>
<path d="M258.2,38.7c0,0.2,0.2,0.3,0.6,0.3h1.9c1.3,0,2.3-0.4,2.8-1.3l0.4,0.1l-0.6,1.5h-7.4V39h0.5c0.4,0,0.6-0.1,0.6-0.3v-5.5&#10;&#9;c0-0.2-0.2-0.3-0.6-0.3H256v-0.2h3.4v0.2h-0.5c-0.4,0-0.6,0.1-0.6,0.3V38.7z"/>
<path d="M270.8,38.7c0.4,0.2,0.9,0.3,1.6,0.3c0.8,0,1.4-0.1,1.8-0.3c0.5-0.3,0.8-0.6,0.8-1v-4.4c0-0.2-0.2-0.3-0.6-0.3H274v-0.2h2.6&#10;&#9;v0.2h-0.4c-0.4,0-0.6,0.1-0.6,0.3v4.4c0,0.5-0.3,0.8-0.9,1.1c-0.7,0.3-1.4,0.5-2.3,0.5c-1,0-1.8-0.2-2.4-0.5&#10;&#9;c-0.5-0.3-0.8-0.7-0.8-1.1v-4.4c0-0.2-0.2-0.3-0.6-0.3h-0.4v-0.2h3.2v0.2h-0.4c-0.4,0-0.6,0.1-0.6,0.3v4.4&#10;&#9;C270.3,38.1,270.5,38.5,270.8,38.7"/>
<path d="M286.7,39.2H283V39h0.6c0.4,0,0.6-0.1,0.6-0.3v-5.3c0-0.3-0.2-0.4-0.6-0.4c-1,0-1.7,0.4-2.4,1.2l-0.4,0l0.6-1.4h6.8l0.6,1.4&#10;&#9;l-0.4,0c-0.6-0.8-1.4-1.2-2.2-1.2c-0.6,0-0.9,0.1-0.9,0.4v5.3c0,0.2,0.2,0.3,0.6,0.3h0.6V39.2z"/>
<path d="M294.5,32.9v-0.2h5.7v0.2h-1.6c-0.4,0-0.6,0.1-0.6,0.3v5.5c0,0.2,0.2,0.3,0.6,0.3h1.6v0.2h-5.7V39h1.7&#10;&#9;c0.4,0,0.6-0.1,0.6-0.3v-5.5c0-0.2-0.2-0.3-0.6-0.3H294.5z"/>
<path d="M312.1,33.1c1.2,0.6,1.9,1.5,1.9,2.8c0,1.3-0.6,2.2-1.9,2.8c-0.7,0.3-1.4,0.5-2.2,0.5c-0.8,0-1.5-0.2-2.2-0.5&#10;&#9;c-1.2-0.6-1.9-1.5-1.9-2.8c0-1.3,0.6-2.2,1.8-2.8c0.6-0.3,1.4-0.5,2.2-0.5S311.5,32.8,312.1,33.1 M308.6,33.2&#10;&#9;c-0.9,0.4-1.4,1.3-1.4,2.8c0,1.5,0.5,2.4,1.4,2.8c0.4,0.2,0.8,0.3,1.3,0.3s0.9-0.1,1.3-0.3c0.9-0.4,1.4-1.3,1.4-2.8&#10;&#9;c0-1.4-0.5-2.3-1.4-2.8c-0.3-0.2-0.8-0.2-1.3-0.2C309.4,33,309,33.1,308.6,33.2z"/>
<path d="M325,37.8h0.1v-4.5c0-0.2-0.2-0.3-0.6-0.3h-0.6v-0.2h2.9v0.2h-0.6c-0.4,0-0.6,0.1-0.6,0.3v6h-0.4l-5.4-5.8h-0.1v5.2&#10;&#9;c0,0.2,0.2,0.3,0.6,0.3h0.6v0.2h-2.9V39h0.6c0.4,0,0.6-0.1,0.6-0.3v-5.5c0-0.2-0.2-0.3-0.6-0.3H318v-0.2h2.1L325,37.8z"/>
<path d="M336.7,36.9c-0.7-0.4-1.5-0.6-2.5-0.9c-1-0.2-1.7-0.4-2.2-0.7c-0.5-0.2-0.8-0.6-0.8-1c0-0.4,0.3-0.8,0.9-1.1&#10;&#9;c0.6-0.3,1.4-0.5,2.5-0.5c0.5,0,1,0,1.4,0.2c0.3,0.1,0.6,0.1,0.9,0.1c0.2,0,0.5-0.1,0.7-0.3l0.3,1.6l-0.4,0.1&#10;&#9;c-0.4-0.5-0.8-0.9-1.1-1.1c-0.5-0.2-1.1-0.3-1.9-0.3c-0.8,0-1.3,0.1-1.6,0.3c-0.5,0.2-0.7,0.5-0.7,0.9c0,0.4,0.2,0.6,0.7,0.8&#10;&#9;c0.2,0.1,0.9,0.2,1.9,0.5c1.2,0.3,2.1,0.6,2.8,1c0.5,0.3,0.8,0.7,0.8,1.1c0,0.5-0.3,0.9-0.9,1.2c-0.6,0.3-1.5,0.5-2.6,0.5&#10;&#9;c-0.6,0-1.1-0.1-1.5-0.2c-0.3-0.1-0.6-0.1-0.8-0.1c-0.3,0-0.6,0.1-0.9,0.3l-0.6-1.9l0.4-0.1c0.4,0.7,0.8,1.1,1.1,1.3&#10;&#9;c0.6,0.3,1.3,0.4,2.3,0.4c0.8,0,1.3-0.1,1.7-0.3c0.5-0.2,0.7-0.6,0.7-1.1C337.3,37.3,337.1,37.1,336.7,36.9"/>
<line y2="29.5" x2="118.9" y1="29.5" x1="337.9" class="st8"/>
<g>
	<path d="M340,18c-0.5,1.6-1.1,2.7-1.7,3.5c-0.6,0.7-1.5,1.2-2.5,1.5c-1.5,0.3-2.8,0.2-3.9-0.5c-0.9-0.5-1.6-1.1-2.2-2&#10;&#9;&#9;c-0.7-1-1.1-2.1-1.3-3.3c-0.5-3.4,0.3-6,2.3-7.8c1.2-1.1,2.6-1.7,4.3-1.7c1,0,2.1,0.4,3.1,1.2l0.9-0.9h0.4l0.3,5.2l-0.5,0.1&#10;&#9;&#9;c-0.1-0.4-0.3-0.8-0.4-1.3c-0.4-1.2-1-2.1-1.7-2.7c-0.6-0.6-1.4-0.9-2.2-0.9c-0.8,0-1.5,0.3-2.2,0.9c-1.2,1.1-1.7,3.1-1.7,6.3&#10;&#9;&#9;c0.1,2.6,0.5,4.4,1.5,5.2c0.6,0.6,1.3,1,1.9,1.1c0.7,0.2,1.4,0.1,2.1-0.2c1.2-0.5,2.1-1.9,3-4L340,18z" class="st4"/>
	<path d="M316.2,22.9h-0.7V17l0.6-0.1c0.3,1.2,0.6,2.1,0.9,2.7c0.3,0.7,0.8,1.4,1.4,1.9c0.6,0.6,1.5,0.9,2.6,0.9&#10;&#9;&#9;c0.8,0,1.4-0.2,1.9-0.6c0.5-0.4,0.7-1,0.7-1.7c0-1-0.4-1.7-1.3-2.2c-0.6-0.3-1.8-0.9-3.7-1.7c-0.6-0.3-1.2-0.7-1.8-1.3&#10;&#9;&#9;c-0.8-0.7-1.2-1.8-1.2-3.2c0-1.1,0.4-2.1,1.3-2.8c0.8-0.7,1.7-1,3-1c1,0,2.2,0.5,3.6,1.4l0.6-1.4h0.6l0.2,5.6h-0.6l-0.2-1&#10;&#9;&#9;c-0.2-1-0.8-2-1.7-2.9c-0.8-0.7-1.5-1-2.4-1c-0.8,0-1.4,0.2-1.9,0.6c-0.5,0.4-0.7,1-0.7,1.6c0,1,0.8,1.9,2.4,2.7c1,0.5,2,1,3,1.5&#10;&#9;&#9;c1.9,1,2.8,2.3,2.8,3.9c0,1.4-0.4,2.5-1.3,3.2c-0.8,0.7-1.9,1.1-3.1,1.1c-1.4,0-2.8-0.5-3.9-1.4L316.2,22.9z" class="st4"/>
	<path d="M307.4,8h6.5v0.6c-0.7,0-1.2,0.1-1.5,0.4c-0.3,0.3-0.5,0.8-0.5,1.4v8.3c0,1.4-0.2,2.4-0.7,3.1&#10;&#9;&#9;c-0.7,1.1-2,1.6-3.9,1.6c-0.8,0-1.5-0.3-2.1-0.8c-0.5-0.5-0.8-1.1-0.8-1.7c0-0.5,0.2-0.9,0.5-1.3c0.3-0.3,0.6-0.4,1-0.4&#10;&#9;&#9;c0.4,0,0.8,0.1,1,0.4c0.2,0.2,0.3,0.5,0.3,0.9c0,0.9-0.6,1.4-1.7,1.5c0.3,0.5,0.8,0.8,1.5,0.8c0.6,0,1.1-0.2,1.6-0.6&#10;&#9;&#9;c0.5-0.5,0.8-1.6,0.8-3.5v-8.3c0-0.6-0.2-1.1-0.5-1.4c-0.3-0.3-0.8-0.4-1.6-0.4V8z" class="st4"/>
	<path d="M285.9,22.9h-0.7V17l0.6-0.1c0.3,1.2,0.6,2.1,0.9,2.7c0.3,0.7,0.8,1.4,1.4,1.9c0.6,0.6,1.5,0.9,2.6,0.9&#10;&#9;&#9;c0.8,0,1.4-0.2,1.9-0.6c0.5-0.4,0.7-1,0.7-1.7c0-1-0.4-1.7-1.3-2.2c-0.6-0.3-1.8-0.9-3.7-1.7c-0.6-0.3-1.2-0.7-1.8-1.3&#10;&#9;&#9;c-0.8-0.7-1.2-1.8-1.2-3.2c0-1.1,0.4-2.1,1.3-2.8c0.8-0.7,1.7-1,3-1c1,0,2.2,0.5,3.6,1.4l0.6-1.4h0.6l0.2,5.6H294l-0.2-1&#10;&#9;&#9;c-0.2-1-0.8-2-1.7-2.9c-0.8-0.7-1.5-1-2.4-1c-0.8,0-1.4,0.2-1.9,0.6c-0.5,0.4-0.7,1-0.7,1.6c0,1,0.8,1.9,2.4,2.7c1,0.5,2,1,3,1.5&#10;&#9;&#9;c1.9,1,2.8,2.3,2.8,3.9c0,1.4-0.4,2.5-1.3,3.2c-0.8,0.7-1.9,1.1-3.1,1.1c-1.4,0-2.8-0.5-3.9-1.4L285.9,22.9z" class="st4"/>
	<path d="M272.6,22.9h-4.8v-0.6c0.8,0,1.3-0.2,1.7-0.5c0.2-0.2,0.3-0.7,0.3-1.6V9.9c0-0.9-0.7-1.4-2-1.4V7.9h4.8&#10;&#9;&#9;l3.3,10.4l3.1-10.4h4.6v0.6c-0.6,0-1.1,0.1-1.3,0.3c-0.3,0.3-0.4,0.6-0.4,1.1v10.8c0,0.5,0.1,0.8,0.4,1.1c0.3,0.3,0.8,0.5,1.3,0.5&#10;&#9;&#9;v0.6h-6v-0.6c0.6,0,1.1-0.1,1.4-0.4c0.3-0.3,0.4-0.7,0.4-1.2V8.6l-4.3,14.3h-0.3l-4.4-13.6v10.9c0,0.8,0.1,1.3,0.4,1.6&#10;&#9;&#9;c0.3,0.3,0.9,0.5,1.7,0.5V22.9z" class="st4"/>
	<path d="M267.1,17.2l-0.3,5.7H255v-0.6c0.6,0,1-0.2,1.4-0.5c0.3-0.3,0.4-0.7,0.4-1.3V10.3c0-0.6-0.2-1.1-0.4-1.3&#10;&#9;&#9;c-0.3-0.3-0.8-0.4-1.4-0.4V8h11.7l0.2,5.1h-0.6c-0.2-0.9-0.5-1.8-0.9-2.6c-0.3-0.7-0.8-1.2-1.4-1.4c-0.7-0.3-1.6-0.5-2.6-0.5&#10;&#9;&#9;c-0.9,0-1.4,0.1-1.7,0.3c-0.3,0.3-0.4,0.7-0.4,1.4v4.4h1.2c0.6-0.1,1-0.2,1.4-0.6c0.5-0.5,0.8-1.4,0.9-2.7h0.6v7.1h-0.6&#10;&#9;&#9;c0-0.6-0.1-1.1-0.3-1.7c-0.3-0.9-0.9-1.4-1.7-1.6h-1.5v5.5c0,0.5,0.1,0.8,0.3,1c0.2,0.2,0.6,0.3,1,0.3h1c1.2,0,2.1-0.3,2.8-0.9&#10;&#9;&#9;c0.5-0.5,1-1.1,1.3-1.9c0.3-0.7,0.6-1.5,0.7-2.1H267.1z" class="st4"/>
	<path d="M251.3,22.9h-6.4v-0.6c0.7,0,1.2-0.2,1.6-0.5c0.3-0.3,0.4-0.7,0.4-1.3V10.3c0-0.5-0.1-0.8-0.4-1.1&#10;&#9;&#9;c-0.3-0.3-0.7-0.4-1.1-0.4c-0.5,0-0.9,0.2-1.4,0.6c-0.6,0.6-1.2,1.9-1.6,4h-0.6l0.1-5.5h12.5l0.1,5.5h-0.6c-0.4-2.1-0.9-3.5-1.6-4&#10;&#9;&#9;c-0.5-0.4-0.9-0.6-1.4-0.6c-0.5,0-0.8,0.1-1.1,0.4c-0.3,0.3-0.4,0.6-0.4,1.1v10.2c0,0.6,0.1,1.1,0.4,1.3c0.3,0.3,0.9,0.5,1.6,0.5&#10;&#9;&#9;V22.9z" class="st4"/>
	<path d="M230.7,22.9H230V17l0.6-0.1c0.3,1.2,0.6,2.1,0.9,2.7c0.3,0.7,0.8,1.4,1.4,1.9c0.6,0.6,1.5,0.9,2.6,0.9&#10;&#9;&#9;c0.8,0,1.4-0.2,1.9-0.6c0.5-0.4,0.7-1,0.7-1.7c0-1-0.4-1.7-1.3-2.2c-0.6-0.3-1.8-0.9-3.7-1.7c-0.6-0.3-1.2-0.7-1.8-1.3&#10;&#9;&#9;c-0.8-0.7-1.2-1.8-1.2-3.2c0-1.1,0.4-2.1,1.3-2.8c0.8-0.7,1.7-1,3-1c1,0,2.2,0.5,3.6,1.4l0.6-1.4h0.6l0.2,5.6h-0.6l-0.2-1&#10;&#9;&#9;c-0.2-1-0.8-2-1.7-2.9c-0.8-0.7-1.5-1-2.4-1c-0.8,0-1.4,0.2-1.9,0.6c-0.5,0.4-0.7,1-0.7,1.6c0,1,0.8,1.9,2.4,2.7c1,0.5,2,1,3,1.5&#10;&#9;&#9;c1.9,1,2.8,2.3,2.8,3.9c0,1.4-0.4,2.5-1.3,3.2c-0.8,0.7-1.9,1.1-3.1,1.1c-1.4,0-2.8-0.5-3.9-1.4L230.7,22.9z" class="st4"/>
	<path d="M225,22.9h-6.4v-0.6c0.8,0,1.3-0.2,1.7-0.5c0.3-0.3,0.4-0.7,0.4-1.3v-3.6l-3.9-7.5c-0.1-0.2-0.3-0.4-0.4-0.6&#10;&#9;&#9;c-0.3-0.3-0.8-0.5-1.2-0.5V8h6.1v0.6c-0.6,0-1.1,0.1-1.3,0.3c-0.3,0.3-0.4,0.8-0.1,1.3l2.9,5.5l2.6-5.2c0.3-0.7,0.2-1.2-0.2-1.6&#10;&#9;&#9;c-0.2-0.2-0.8-0.3-1.6-0.3V8h5v0.6c-0.6,0-1.1,0.1-1.4,0.4c-0.3,0.3-0.6,0.7-0.9,1.2l-3.1,6.2v4.3c0,0.7,0.1,1.2,0.4,1.4&#10;&#9;&#9;c0.3,0.3,0.8,0.4,1.5,0.4V22.9z" class="st4"/>
	<path d="M204.1,22.9h-0.7V17l0.6-0.1c0.3,1.2,0.6,2.1,0.9,2.7c0.3,0.7,0.8,1.4,1.4,1.9c0.6,0.6,1.5,0.9,2.6,0.9&#10;&#9;&#9;c0.8,0,1.5-0.2,1.9-0.6s0.7-1,0.7-1.7c0-1-0.4-1.7-1.3-2.2c-0.6-0.3-1.8-0.9-3.7-1.7c-0.6-0.3-1.2-0.7-1.8-1.3&#10;&#9;&#9;c-0.8-0.7-1.2-1.8-1.2-3.2c0-1.1,0.4-2.1,1.3-2.8c0.8-0.7,1.7-1,3-1c1,0,2.2,0.5,3.6,1.4l0.6-1.4h0.6l0.2,5.6h-0.6l-0.2-1&#10;&#9;&#9;c-0.2-1-0.8-2-1.7-2.9c-0.8-0.7-1.5-1-2.4-1s-1.5,0.2-1.9,0.6c-0.5,0.4-0.7,1-0.7,1.6c0,1,0.8,1.9,2.4,2.7c1,0.5,2,1,3,1.5&#10;&#9;&#9;c1.9,1,2.8,2.3,2.8,3.9c0,1.4-0.4,2.5-1.3,3.2c-0.8,0.7-1.9,1.1-3.1,1.1c-1.4,0-2.8-0.5-3.9-1.4L204.1,22.9z" class="st4"/>
	<path d="M191.3,22.9h-6.4v-0.6c0.7,0,1.2-0.2,1.6-0.5c0.3-0.3,0.4-0.7,0.4-1.3V10.3c0-0.5-0.1-0.8-0.4-1.1&#10;&#9;&#9;c-0.3-0.3-0.7-0.4-1.1-0.4c-0.5,0-0.9,0.2-1.4,0.6c-0.6,0.6-1.2,1.9-1.6,4h-0.6l0.1-5.5h12.5l0.1,5.5h-0.6c-0.4-2.1-0.9-3.5-1.6-4&#10;&#9;&#9;c-0.5-0.4-0.9-0.6-1.4-0.6c-0.5,0-0.8,0.1-1.1,0.4c-0.3,0.3-0.4,0.6-0.4,1.1v10.2c0,0.6,0.1,1.1,0.4,1.3c0.3,0.3,0.9,0.5,1.6,0.5&#10;&#9;&#9;V22.9z" class="st4"/>
	<path d="M181,17.2l-0.3,5.7h-11.8v-0.6c0.6,0,1-0.2,1.4-0.5c0.3-0.3,0.4-0.7,0.4-1.3V10.3c0-0.6-0.1-1.1-0.4-1.3&#10;&#9;&#9;c-0.3-0.3-0.8-0.4-1.4-0.4V8h11.7l0.2,5.1h-0.6c-0.2-0.9-0.5-1.8-0.9-2.6c-0.3-0.7-0.8-1.2-1.4-1.4c-0.7-0.3-1.6-0.5-2.6-0.5&#10;&#9;&#9;c-0.9,0-1.4,0.1-1.7,0.3c-0.3,0.3-0.4,0.7-0.4,1.4v4.4h1.2c0.6-0.1,1-0.2,1.4-0.6c0.5-0.5,0.8-1.4,0.9-2.7h0.6v7.1h-0.6&#10;&#9;&#9;c0-0.6-0.1-1.1-0.3-1.7c-0.3-0.9-0.9-1.4-1.7-1.6h-1.5v5.5c0,0.5,0.1,0.8,0.4,1c0.2,0.2,0.6,0.3,1,0.3h1c1.2,0,2.1-0.3,2.8-0.9&#10;&#9;&#9;c0.5-0.5,1-1.1,1.3-1.9c0.3-0.7,0.6-1.5,0.7-2.1H181z" class="st4"/>
	<path d="M159.1,22.9h-4.7v-0.6c0.8,0,1.3-0.2,1.7-0.5c0.3-0.3,0.4-0.7,0.4-1.3V10.3c0-0.6-0.2-1-0.5-1.3&#10;&#9;&#9;c-0.3-0.3-0.8-0.4-1.6-0.4V8h4.1l7.1,10.8v-8.5c0-0.6-0.1-1.1-0.4-1.3c-0.3-0.3-0.8-0.4-1.6-0.4V8h4.7v0.6c-1.3,0-2,0.6-2,1.7v12.8&#10;&#9;&#9;h-0.7l-8.4-13v10.3c0,0.6,0.1,1.1,0.4,1.3c0.3,0.3,0.8,0.5,1.5,0.5V22.9z" class="st4"/>
	<path d="M153.7,22.9h-7.3v-0.6h0.4c0.6,0,1.1-0.2,1.5-0.5s0.5-0.8,0.5-1.6v-10c0-0.5-0.2-0.9-0.5-1.2&#10;&#9;&#9;c-0.3-0.3-1-0.5-1.9-0.5V8h7.3v0.6c-1,0-1.7,0.2-2,0.5c-0.3,0.3-0.4,0.7-0.4,1.2v10.1c0,0.6,0.2,1,0.5,1.3c0.4,0.4,1,0.6,1.9,0.6&#10;&#9;&#9;V22.9z" class="st4"/>
</g>
<path d="M138.4,8h6.9v0.7c-0.7,0-1.3,0.1-1.6,0.4c-0.4,0.4-0.6,0.9-0.6,1.6v9.4c0,1.6-0.2,2.7-0.7,3.5&#10;&#9;c-0.7,1.2-2.1,1.8-4.2,1.8c-0.9,0-1.6-0.3-2.2-0.9c-0.6-0.5-0.8-1.2-0.8-2c0-0.6,0.2-1.1,0.6-1.4c0.3-0.3,0.7-0.4,1.1-0.4&#10;&#9;c0.4,0,0.8,0.1,1.1,0.4c0.2,0.2,0.4,0.6,0.4,1.1c0,1-0.6,1.6-1.9,1.7c0.4,0.6,0.9,0.9,1.6,0.9c0.6,0,1.2-0.2,1.7-0.7&#10;&#9;c0.6-0.5,0.8-1.8,0.8-3.9v-9.4c0-0.7-0.2-1.3-0.6-1.6c-0.3-0.3-0.9-0.4-1.7-0.4V8z" class="st4"/>
<path d="M132.4,8h4.9v0.6c-0.6,0-1.1,0.2-1.5,0.5c-0.3,0.3-0.5,0.7-0.5,1.3V18c0,1.8-0.5,3.1-1.5,4&#10;&#9;c-1,0.9-2.2,1.3-3.7,1.3c-1.6,0-2.9-0.4-3.7-1.2c-0.9-0.8-1.4-2.1-1.4-3.7v-8.2c0-0.6-0.1-1-0.4-1.3c-0.3-0.3-0.8-0.5-1.5-0.5V8h6.3&#10;&#9;v0.6c-0.7,0-1.2,0.1-1.5,0.4c-0.3,0.3-0.4,0.7-0.4,1.2v8.6c0,1.3,0.3,2.3,1,2.9c0.6,0.5,1.4,0.8,2.4,0.8c1,0,1.9-0.3,2.6-0.9&#10;&#9;c0.8-0.7,1.2-1.9,1.2-3.4v-7.8c0-0.6-0.1-1-0.4-1.3c-0.3-0.3-0.9-0.5-1.7-0.5V8z" class="st4"/>
<path d="M116.9,23h-6.3v-0.6c0.6,0,1.1-0.1,1.4-0.4c0.2-0.2,0.4-0.6,0.4-1.3V10.1c0-0.4-0.1-0.8-0.4-1&#10;&#9;c-0.2-0.2-0.7-0.3-1.3-0.4V8h11.5l0.2,5.3h-0.6c-0.2-1.7-0.7-2.9-1.5-3.6c-0.8-0.7-1.8-1.1-3-1.1h-1.1c-0.9,0-1.3,0.6-1.3,1.7v4.4&#10;&#9;c0.6,0,1,0,1.3,0c0.5-0.1,1-0.2,1.3-0.6c0.5-0.4,0.7-1.3,0.8-2.7h0.6v7.1h-0.6c0-1.3-0.2-2.2-0.7-2.6c-0.3-0.3-0.7-0.5-1.1-0.6&#10;&#9;c-0.3-0.1-0.9-0.1-1.6-0.1v5.2c0,0.5,0.1,0.9,0.4,1.2c0.3,0.3,0.9,0.5,1.7,0.5V23z" class="st4"/>
<path d="M0,40h109.8v-4.3c-6.2-3.2-14-7.8-20.7-12.3c-9.6-6.4-28.9-23-28.9-23L58.9,0L47.7,0.5&#10;&#9;c-11.3,10-14,13.7-27.7,23C13.6,27.9,6,32,0,35.1V40z" class="st7"/>
<path d="M20.9,22.9c1.9-1.3,6.5-4.6,9.7-7.1c2.4-2,5-4.3,9.2-8.1c2.1-1.9,4.7-4.3,7.9-7.1l11.2-0.4l1.3,0.5&#10;&#9;c0.1,0.1,10.1,8.9,17.6,14.5c0.1,0.1,0.5,0.4,0.9,0.7c1.3,1.1,3.7,3,4.6,3.6c-2.8,0-4.9-0.8-5-0.8l-0.1,0l0.3,1.7l-1.7-1.5v1.9&#10;&#9;c-2.2,0.1-4.2,1.3-4.6,1.5c-1.2-2.1-2.6-4.5-2.6-4.6l0,0h-1.5l0,0c-0.8,2.2-1.6,3.1-1.9,3.3V17l-0.1,0c-2.4-0.2-4.7-1.9-4.7-1.9&#10;&#9;L61.3,15l0.1,0.2c0.4,1.1,2.8,5.2,3.9,6.8c-2.4-2.7-6.4-8.7-6.4-8.8l-0.1,0.1l0.5,1.9L58,14.6l2.7,5.3L56.8,16l0,0.1&#10;&#9;c-0.3,1.9-3.3,4.5-3.8,4.9l-1.7-6.5l-0.1,0.2c0,0.1-2.7,5-6.5,7c0.3-0.4,0.9-1.1,1.8-2.4l0,0l0,0c0,0-0.3-0.5-0.7-0.5&#10;&#9;c-0.2,0-0.3,0.1-0.5,0.2C45.1,19,45,19,44.9,19c-0.4,0-1-0.8-1.1-1.1l0,0h-2.5l0,0c0,0-0.7,1.7-3.1,3.6C38,21.6,37.3,22,37,22&#10;&#9;c0,0-0.1,0-0.1,0c0,0,0-0.2,0.5-0.9L37.3,21c0,0-0.2,0.1-0.4,0.1c-0.1,0-0.1,0-0.1-0.1c0,0-0.1-0.2,0.1-0.5C37,20,37,19.5,37,19&#10;&#9;c0-0.7,0-1.4,0.5-2.1c0.3-0.4,0.4-0.8,0.3-1.1c-0.1-0.3-0.3-0.5-0.4-0.6c0.1-0.1,0.1-0.1,0.1-0.2l0-0.1l-0.1,0c0,0-0.1,0-1.2,0.5&#10;&#9;l0.8-2.3l-0.1-0.1c0,0-2.2,2.8-3.8,4.2c-0.1,0.1-0.2,0.2-0.2,0.2c0.3-0.4,1.2-1.6,1.8-2.3l-0.1-0.1l-2.2,1.6l1.2-1.7l-0.1-0.1&#10;&#9;C33.5,15,25.3,20.6,20.9,22.9z" class="st5"/>
<path d="M58.9,0.1l1.3,0.4c0.5,0.5,10.3,9,17.6,14.5c0.1,0.1,0.4,0.4,0.9,0.7c1.7,1.4,3.5,2.8,4.4,3.5&#10;&#9;c-2.7-0.1-4.7-0.8-4.7-0.8l-0.2-0.1l0,0.2l0.3,1.4L77,18.8l-0.2-0.2v0.3v1.6c-2.1,0.1-4,1.2-4.5,1.5c-1.2-2.1-2.5-4.5-2.5-4.5l0-0.1&#10;&#9;h-0.1h-1.4h-0.1l0,0.1c-0.7,2-1.4,2.9-1.8,3.2v-3.6V17l-0.1,0c-2.4-0.2-4.6-1.9-4.7-1.9l-0.4-0.3l0.1,0.4c0.3,1,2.2,4.1,3.3,6&#10;&#9;c-2.4-3-5.7-8-5.7-8l-0.3,0.1l0.5,1.7l-0.9-0.4l-0.4-0.2l0.2,0.4l2.4,4.7L57,16.1l-0.2-0.2l0,0.3c-0.3,1.8-3,4.2-3.7,4.8l-1.7-6.3&#10;&#9;l-0.1-0.4l-0.2,0.3c0,0-2.5,4.8-6.2,6.8c0.3-0.4,0.8-1.1,1.5-2.2l0-0.1l0-0.1c0,0-0.3-0.5-0.8-0.5c-0.2,0-0.4,0.1-0.5,0.2&#10;&#9;c-0.1,0.1-0.1,0.1-0.2,0.1c-0.4,0-0.8-0.7-1.1-1.1l0-0.1h-0.1h-2.4h-0.1l0,0.1c0,0-0.7,1.7-3.1,3.5c-0.3,0.2-0.9,0.5-1.1,0.5&#10;&#9;c0,0,0,0,0,0l0,0c0,0,0-0.2,0.4-0.8l-0.2-0.2c-0.1,0-0.2,0.1-0.4,0.1c0,0-0.1,0-0.1,0c0,0-0.1-0.1,0.1-0.5c0.2-0.5,0.2-1,0.2-1.5&#10;&#9;c0-0.7,0-1.4,0.4-2c0.3-0.4,0.4-0.8,0.3-1.2c-0.1-0.3-0.2-0.4-0.3-0.6c0.1-0.1,0.1-0.1,0.1-0.2l0-0.1h-0.1c0,0,0,0,0,0&#10;&#9;c0,0-0.1,0-1.1,0.4l0.8-2.1l-0.2-0.1c0,0-1.9,2.4-3.4,3.9c0.4-0.5,0.9-1.1,1.4-1.7l-0.2-0.2l-1.8,1.3l1-1.4l-0.2-0.2&#10;&#9;c-0.1,0.1-6.9,4.7-11.4,7.3c2.3-1.6,5.9-4.2,8.5-6.3c2.4-2,5-4.3,9.2-8.2c2.1-1.9,4.7-4.2,7.8-7.1L58.9,0.1 M58.9,0L47.7,0.5&#10;&#9;c-9.4,8.5-13.4,12.3-17.1,15.3C26.5,19.1,20,23.5,20,23.5c4-1.9,13.7-8.5,13.7-8.5l-1.5,2.1l2.5-1.8c0,0-2.1,2.5-1.9,2.5&#10;&#9;c0,0,0.2-0.1,0.4-0.3c1.6-1.4,3.8-4.2,3.8-4.2l-0.9,2.4c1-0.4,1.3-0.6,1.4-0.6s-0.2,0.1-0.2,0.1s1,0.5,0.2,1.7&#10;&#9;c-0.8,1.2-0.2,2.4-0.6,3.5c-0.2,0.6-0.1,0.7,0.1,0.7c0.2,0,0.4-0.1,0.4-0.1c-0.6,0.8-0.6,1.1-0.3,1.1c0.4,0,1.2-0.5,1.2-0.5&#10;&#9;c2.4-1.9,3.1-3.6,3.1-3.6h2.4c0,0,0.6,1.1,1.2,1.1c0.1,0,0.2,0,0.3-0.1c0.2-0.2,0.3-0.2,0.5-0.2c0.4,0,0.6,0.5,0.6,0.5&#10;&#9;c-1.3,1.9-2,2.7-2,2.7c4.1-1.8,6.8-7.2,6.8-7.2l1.7,6.5c0,0,3.6-2.9,4-5l4.1,4.1l-2.8-5.6l1.2,0.5l-0.6-2c0,0,4.7,7.1,7,9.4&#10;&#9;c0,0-3.8-6.1-4.3-7.5c0,0,2.3,1.8,4.7,1.9v4c0,0,1.1-0.7,2.1-3.5h1.4c0,0,1.3,2.4,2.6,4.6c0,0,2.2-1.4,4.7-1.5v-1.8l1.7,1.5&#10;&#9;l-0.3-1.8c0,0,2.2,0.8,5.1,0.8c0,0,0.1,0,0.1,0c-1-0.4-5.3-4.1-5.8-4.5C70.2,9.3,60.2,0.5,60.2,0.5L58.9,0L58.9,0z" class="st0"/>
<linearGradient y2="0.1137" x2="50.2383" y1="13.2983" x1="50.2383" gradientUnits="userSpaceOnUse" id="SVGID_1_">
	<stop style="stop-color:#E6F5F8" offset="0"/>
	<stop style="stop-color:#B8C2DD" offset="0.3862"/>
	<stop style="stop-color:#777DBA" offset="1"/>
</linearGradient>
<path d="M50.8,0.4c0,0-2.6,4-4.7,5.7l-0.4,3.1c0,0,0.9,0.2,0.9,1.2c0.1,1,0,2.6-0.4,2.6C46,13,46,13,46,13l1.1,3.5&#10;&#9;c0,0,1.5-1.6,1.7-3c0.2-1.3-0.1-2-0.1-2s0.4-0.6,0.5-1.1C49.3,9.8,47.7,9,48,8.5c0.3-0.5,0.8-1.1,1.4-1.1c0.6,0,1.2,1.5,0.8,2.1&#10;&#9;c-0.4,0.6,1.7,1.8,2,3.2c0.4,1.3,0.7,1.5,0.7,1.5s-0.1-1.1,0.4-1.6c0.4-0.5,0.8-1.5,0.4-1.9c-0.4-0.4-0.4-0.7-0.5-1.4&#10;&#9;c-0.1-0.7,0-1.6-0.3-1.8c-0.3-0.2-0.4-0.6-0.4-0.9s-0.8-0.2-0.7-0.6c0.1-0.4,0.1-0.4,0.4-1.2c0.2-0.8,0.7-0.8,0.9-1.1&#10;&#9;c0.3-0.3,1.2-0.3,1.2-0.3l0.3-2.9L50.8,0.4z" class="st1"/>
<linearGradient gradientTransform="matrix(0.912 2.900000e-002 -2.980000e-002 0.9365 23.547 9.9762)" y2="-10.5629" x2="51.2426" y1="6.7671" x1="51.7676" gradientUnits="userSpaceOnUse" id="SVGID_2_">
	<stop style="stop-color:#E6F5F8" offset="0"/>
	<stop style="stop-color:#B8C2DD" offset="0.3862"/>
	<stop style="stop-color:#777DBA" offset="1"/>
</linearGradient>
<path d="M60,0.5c0,0,0.6,2.7-0.5,3.8l1.1-1.1c0,0-1.1,2.3-1.6,2.8l0,1l0.8-1.5l1.8,2.1l0-1.1l2.6,3.7l1.4,0l3.4,3.4&#10;&#9;l2,0.1l3.1,2.4l2,1.3l1.7,0.4l4.4,0.9C77.9,15.1,74,12.3,70,9C66.1,5.8,62.3,2.6,60,0.5z" class="st2"/>
<linearGradient y2="0.4728" x2="48.1406" y1="2.7891" x1="48.1406" gradientUnits="userSpaceOnUse" id="SVGID_3_">
	<stop style="stop-color:#E6F5F8" offset="0"/>
	<stop style="stop-color:#B8C2DD" offset="0.3862"/>
	<stop style="stop-color:#777DBA" offset="1"/>
</linearGradient>
<path d="M48.3,0.5c0,0-0.8,2-1.6,2.7c-0.8,0.7,2.2-2.7,2.2-2.7s0,0.9-1.2,2.8c0,0,1.6-1.8,2-2.8H48.3z" class="st3"/>
<g>
	<path d="M26.5,33.5C26.5,33.5,26.5,33.5,26.5,33.5c0.2,0,0.4,0,0.6,0.1c0-0.1,0-0.1,0-0.2c0.1,0,0.2,0,0.2,0.1&#10;&#9;&#9;c-0.1,0-0.2,0.1-0.2,0.1C26.9,33.6,26.7,33.5,26.5,33.5 M29.7,33.1c0.1-0.1,0.1-0.1,0.1-0.3c0-0.1,0-0.2,0-0.2&#10;&#9;&#9;c-0.1-0.1-0.2-0.1-0.4-0.2c-0.2-0.1-0.4-0.1-0.7-0.2c-0.3-0.1-0.6-0.1-1-0.2c-0.4,0.3-0.9,0.5-1.3,0.8c-0.1,0-0.2-0.1-0.3-0.1&#10;&#9;&#9;c-0.2-0.1-0.3-0.2-0.3-0.3c-0.1-0.1-0.1-0.3-0.1-0.4c0-0.2,0-0.4,0-0.6c0.4-0.2,0.8-0.5,1.2-0.7c0.1,0,0.1-0.1,0.1-0.1&#10;&#9;&#9;c0,0-0.1-0.1-0.2-0.2c-0.1,0-0.3-0.1-0.4-0.1c-0.2-0.1-0.3-0.1-0.4-0.1c0.1,0,0.2-0.1,0.2-0.1c0.4,0.1,0.9,0.2,1.3,0.3&#10;&#9;&#9;c0,0.1,0.1,0.1,0.1,0.2c0.1,0.3,0.2,0.5,0.2,0.7c0.2,0,0.3,0.1,0.5,0.1c0-0.2,0-0.3,0-0.5c0,0.1,0.1,0.2,0.1,0.3&#10;&#9;&#9;c0.2,0,0.4,0.1,0.5,0.1c0-0.2,0-0.5,0-0.7c1,0.2,1.9,0.4,2.9,0.5c0,0.1,0,0.1,0,0.2c-0.2,0-0.4-0.1-0.5-0.1c-0.5-0.1-1-0.2-1.5-0.3&#10;&#9;&#9;c-0.6,0.4-1.1,0.7-1.7,1c0.3,0.1,0.6,0.1,1,0.2c0.3,0,0.5,0.1,0.7,0.1c0.2,0,0.5,0,0.7,0c0.2,0,0.4,0,0.6-0.1&#10;&#9;&#9;c0.2-0.1,0.4-0.1,0.5-0.2c0.1,0,0.2,0,0.3,0.1c0,0.1,0,0.1,0,0.2c-0.5,0.3-1.1,0.7-1.6,1C30.1,33.2,29.9,33.1,29.7,33.1 M34.8,31.5&#10;&#9;&#9;c0,0,0.1,0,0.1,0C34.9,31.5,34.8,31.6,34.8,31.5C34.8,31.6,34.8,31.5,34.8,31.5" class="st6"/>
	<path d="M37.2,35.4c0.2,0,0.3,0,0.5-0.1c0.3,0,0.6-0.1,0.8-0.1c0.5,0,1,0,1.5-0.1c0.7-0.1,1.2-0.3,1.6-0.6&#10;&#9;&#9;c0.5-0.3,1-0.7,1.5-1.1c0.3-0.2,0.4-0.3,0.5-0.4c0-0.1,0-0.2-0.1-0.2c-0.1,0-0.2-0.1-0.5-0.1c-0.3-0.1-0.4-0.1-0.6-0.1&#10;&#9;&#9;c0.1-0.1,0.2-0.1,0.2-0.2c1.1,0.1,2.2,0.2,3.3,0.3c0,0.1,0,0.2,0,0.2c-0.2,0-0.5,0-0.7,0c-0.2,0-0.4,0.1-0.6,0.2&#10;&#9;&#9;c-0.2,0.1-0.4,0.2-0.7,0.4c-0.5,0.4-1.1,0.8-1.6,1.2c-0.5,0.3-1.2,0.6-2.2,0.7c-0.4,0.1-0.9,0.1-1.4,0.1&#10;&#9;&#9;C38.2,35.5,37.7,35.5,37.2,35.4 M35.4,33.7c-0.2-0.2-0.3-0.4-0.4-0.7c0.4-0.3,0.8-0.5,1.2-0.8c0.1,0,0.1-0.1,0.1-0.1&#10;&#9;&#9;c0,0-0.1-0.1-0.2-0.1c-0.1,0-0.2-0.1-0.4-0.1c-0.2,0-0.3-0.1-0.4-0.1c0.1-0.1,0.2-0.1,0.2-0.2c1.2,0.2,2.4,0.3,3.6,0.5&#10;&#9;&#9;c0,0,0,0.1,0,0.1c0,0,0,0.1,0,0.1c-0.1,0-0.2,0-0.2,0c-0.1,0-0.2,0.1-0.3,0.1c-0.7,0.5-1.5,1-2.2,1.5c-0.1,0.1-0.2,0.2-0.3,0.2&#10;&#9;&#9;C35.9,34.1,35.6,33.9,35.4,33.7 M40.6,32.2C40.6,32.2,40.6,32.2,40.6,32.2C40.6,32.2,40.6,32.3,40.6,32.2&#10;&#9;&#9;C40.6,32.2,40.6,32.2,40.6,32.2" class="st6"/>
	<path d="M44.4,37C44.3,37,44.3,37,44.4,37c0-0.1,0.1-0.2,0.2-0.2c0.4,0,0.8,0,1.2-0.1c0,0,0,0,0,0&#10;&#9;&#9;c-0.1,0.1-0.1,0.3-0.2,0.4c-0.1,0-0.1,0-0.2,0C45.1,37,44.7,37,44.4,37 M48.9,35.5c0-0.3,0-0.6,0-0.9c0.5-0.4,1-0.8,1.5-1.2&#10;&#9;&#9;c0.1-0.1,0.1-0.1,0.1-0.1c0,0-0.1-0.1-0.2-0.1c-0.1,0-0.3,0-0.4-0.1c-0.2,0-0.3,0-0.4,0c0.1-0.1,0.2-0.1,0.2-0.2&#10;&#9;&#9;c0.7,0,1.5,0,2.2,0.1c0,0.4,0,0.9,0,1.3c-0.8,0.6-1.6,1.3-2.4,1.9c-0.2,0.2-0.5,0.3-0.8,0.4C48.8,36.2,48.9,35.9,48.9,35.5&#10;&#9;&#9; M45,35.9c0-0.1,0-0.1,0-0.2c0.1,0,0.3,0.1,0.3,0.1c0.1,0.1,0.1,0.2,0,0.3c-0.1,0.1-0.2,0.1-0.4,0.2C45,36.2,45,36,45,35.9" class="st6"/>
	<path d="M51.4,36.4c0.1-0.1,0.2-0.1,0.2-0.2c0.1,0,0.3,0,0.6,0c0.1,0,0.2,0,0.3,0c1.1,0,2.2,0,3.4,0c0,0,0,0,0-0.1&#10;&#9;&#9;c0,0,0.1,0,0.1,0c0,0,0.1,0,0.1,0c0.1,0,0.2,0,0.4,0c0.2,0,0.4,0,0.5,0c-0.1,0.1-0.2,0.1-0.2,0.2c-0.7,0-1.3,0-2,0&#10;&#9;&#9;C53.6,36.5,52.5,36.5,51.4,36.4 M55.9,35.6c-0.2,0-0.4-0.1-0.5-0.1c-0.2-0.1-0.3-0.2-0.3-0.3c-0.1-0.1-0.1-0.2-0.1-0.4&#10;&#9;&#9;c0,0,0-0.1,0-0.1c0.5-0.4,1-0.9,1.6-1.3c0.1-0.1,0.1-0.1,0.1-0.1c0,0-0.1-0.1-0.2-0.1c-0.1,0-0.2,0-0.4,0c-0.2,0-0.4,0-0.5,0&#10;&#9;&#9;c0.1-0.1,0.2-0.1,0.2-0.2c0.8,0,1.6,0,2.5,0c0,0.2,0,0.5,0,0.7c0,0.2,0,0.4,0,0.5c-0.6,0.5-1.2,1.1-1.9,1.6&#10;&#9;&#9;C56.1,35.6,56,35.6,55.9,35.6 M59.5,32.8c0.5,0,1,0,1.5-0.1c-0.1,0.1-0.2,0.1-0.2,0.2c-0.1,0-0.3,0-0.5,0c-0.2,0-0.4,0-0.6,0.1&#10;&#9;&#9;c-0.1,0-0.1,0-0.2,0C59.5,33,59.5,32.9,59.5,32.8" class="st6"/>
	<path d="M57.6,36.2c0.2,0,0.4,0,0.7,0c0,0,0,0,0.1,0c0.8,0,1.5,0,2.3-0.1c0,0,0,0,0-0.1c0.1,0,0.3,0,0.4,0&#10;&#9;&#9;c0.1,0,0.1,0,0.2,0c0.2,0,0.4,0,0.6,0c-0.1,0.1-0.2,0.1-0.2,0.2c-1.4,0.1-2.8,0.1-4.2,0.1C57.5,36.4,57.6,36.3,57.6,36.2&#10;&#9;&#9; M65.6,35.9c0.2,0,0.3,0,0.5,0c0,0,0,0,0,0c0.2,0,0.4,0,0.6,0c0-0.6,0-1.2,0-1.9c0.3,0.3,0.6,0.5,0.9,0.8c0.5-0.5,1.1-1,1.6-1.5&#10;&#9;&#9;c0.3-0.2,0.4-0.4,0.5-0.5c0-0.1,0-0.2-0.1-0.2c-0.1,0-0.2,0-0.5,0c-0.2,0-0.4,0-0.6,0c0.1-0.1,0.2-0.1,0.2-0.2c0.3,0,0.7-0.1,1-0.1&#10;&#9;&#9;c0,0.4,0,0.8,0,1.2c-0.9,0.9-1.9,1.8-2.8,2.6c-0.4,0-0.8,0.1-1.2,0.1C65.8,36,65.7,35.9,65.6,35.9 M60.6,35.4&#10;&#9;&#9;c-0.1,0-0.2-0.1-0.3-0.1c0,0,0,0,0,0c0.7-0.6,1.4-1.2,2-1.8c0.1-0.1,0.2-0.2,0.2-0.2c0,0,0,0,0,0c0.1,0.2,0.3,0.3,0.4,0.4&#10;&#9;&#9;c-0.6,0.5-1.2,1-1.8,1.6c-0.1,0.1-0.2,0.2-0.2,0.2C60.8,35.5,60.7,35.4,60.6,35.4 M62,33c-0.2,0-0.4,0-0.6,0&#10;&#9;&#9;c0.1-0.1,0.2-0.1,0.2-0.2c0.1,0,0.3,0,0.4,0c0.1,0.1,0.2,0.2,0.3,0.4C62.3,33,62.2,33,62,33 M72.8,31.6c0,0,0.1,0,0.1,0&#10;&#9;&#9;C72.9,31.7,72.9,31.7,72.8,31.6C72.8,31.7,72.8,31.7,72.8,31.6" class="st6"/>
	<path d="M69.5,35.5c1.1-0.1,2.3-0.2,3.4-0.4c1.7-0.2,3.4-0.4,5.1-0.7c0-0.2,0-0.4,0-0.7c0.1,0,0.1-0.1,0.2-0.1&#10;&#9;&#9;c0.5-0.3,0.8-0.4,1-0.6c0.2,0,0.3-0.1,0.5-0.1c-0.5,0.5-1,0.9-1.5,1.4c-3,0.5-5.9,1-8.9,1.3C69.4,35.6,69.4,35.5,69.5,35.5&#10;&#9;&#9; M73.6,34.4c-0.2,0-0.3,0-0.5-0.1c-0.1-0.1-0.2-0.2-0.2-0.3c0-0.1-0.1-0.3-0.1-0.5c0.5-0.5,1-1,1.5-1.5c0.1-0.1,0.1-0.1,0.1-0.2&#10;&#9;&#9;c0,0-0.1-0.1-0.2-0.1c-0.1,0-0.2,0-0.4,0c-0.2,0-0.3,0-0.4,0c0.1-0.1,0.2-0.2,0.2-0.2c0.4-0.1,0.8-0.1,1.2-0.2c0,0,0,0,0,0.1&#10;&#9;&#9;c0.1,0.3,0.2,0.5,0.2,0.6c0.2,0,0.4,0,0.5-0.1c0-0.1,0-0.2,0-0.3c0,0.1,0.1,0.2,0.1,0.3c0.2,0,0.4-0.1,0.5-0.1c0-0.3,0-0.5,0-0.8&#10;&#9;&#9;c1.8-0.3,3.6-0.6,5.4-1c0,0.1,0,0.3,0,0.4c-0.2,0.2-0.4,0.4-0.6,0.7c-0.2,0-0.3,0.1-0.5,0.1c0-0.1,0-0.3-0.2-0.4&#10;&#9;&#9;c-0.1-0.1-0.4-0.2-0.6-0.1c-0.1,0-0.3,0-0.5,0.1c-0.2,0-0.4,0.1-0.6,0.1C78,31,77.5,31.1,77,31.2c-0.5,0.6-1.1,1.1-1.6,1.7&#10;&#9;&#9;c0.3-0.1,0.6-0.1,1-0.2c0.1,0,0.2,0,0.2,0c0,0,0,0,0,0.1c0,0.1-0.1,0.1-0.1,0.2c-0.1,0-0.2,0-0.3,0c-0.3,0.1-0.6,0.1-1,0.2&#10;&#9;&#9;c-0.4,0.4-0.8,0.8-1.2,1.2c0,0,0,0,0,0C73.8,34.4,73.7,34.4,73.6,34.4C73.6,34.4,73.6,34.4,73.6,34.4 M78.2,32.1&#10;&#9;&#9;c0,0,0.1-0.1,0.2-0.1c0.2-0.1,0.4-0.3,0.5-0.4c0.2,0,0.3-0.1,0.5-0.1c-0.4,0.4-0.8,0.9-1.2,1.3C78.1,32.6,78.1,32.3,78.2,32.1" class="st6"/>
	<path d="M85.9,32.5c0.1,0,0.2,0,0.3-0.1c-0.1,0.1-0.2,0.2-0.2,0.3c0,0-0.1,0-0.1,0C85.9,32.7,85.9,32.6,85.9,32.5&#10;&#9;&#9; M84.9,32.4c-0.2,0-0.3-0.1-0.3-0.2c-0.1-0.1-0.1-0.2-0.1-0.4c0-0.2,0-0.5,0-0.7c0.5-0.6,1.1-1.2,1.6-1.8c-0.1,0-0.2,0.1-0.3,0.1&#10;&#9;&#9;c-0.1,0-0.3,0.1-0.5,0.1c-0.2,0.1-0.4,0.1-0.5,0.1c-0.1,0-0.2,0.1-0.3,0.1c0-0.1,0-0.2,0-0.3c2.5-0.6,5.1-1.3,7.6-2&#10;&#9;&#9;c-0.4,0.5-0.8,0.9-1.2,1.4c-0.2,0-0.3,0.1-0.5,0.1c0-0.2,0-0.3-0.1-0.5c-0.1-0.1-0.3-0.2-0.5-0.1c-0.1,0-0.3,0.1-0.5,0.1&#10;&#9;&#9;c-0.2,0-0.4,0.1-0.5,0.1c-0.1,0-0.2,0.1-0.3,0.1c-1.1,1.2-2.1,2.5-3.2,3.7c0,0-0.1,0.1-0.1,0.1C85,32.5,84.9,32.5,84.9,32.4" class="st6"/>
	<path d="M26.5,33.5c0-0.1,0-0.2,0-0.3c-0.2,0-0.3-0.1-0.5-0.2c-0.2-0.1-0.3-0.1-0.4-0.2c-0.2-0.1-0.3-0.2-0.3-0.3&#10;&#9;&#9;c-0.1-0.1-0.1-0.3-0.1-0.4c0-1,0-2,0-3c0.2,0,0.4,0.1,0.6,0.1c0,0.9,0,1.9,0,2.8c0,0.2,0,0.3,0.1,0.4c0.1,0.1,0.2,0.2,0.3,0.3&#10;&#9;&#9;c0.1,0.1,0.2,0.1,0.4,0.2c0.2,0.1,0.3,0.1,0.5,0.2c0,0.2,0,0.3,0,0.5C26.9,33.5,26.7,33.5,26.5,33.5 M22,32.2c0-0.1,0-0.1,0-0.1&#10;&#9;&#9;c0.1,0,0.3,0,0.5,0.1c0,0,0.1,0,0.1,0c-0.1,0-0.1,0.1-0.2,0.1c0,0-0.1,0-0.1,0C22.1,32.2,22.1,32.2,22,32.2 M28.4,31.1&#10;&#9;&#9;c0-0.1,0-0.2-0.1-0.3c0-1,0-2.1,0-3.1c0-0.1,0.1-0.2,0.1-0.3c0.2,0,0.4,0.1,0.5,0.1c0,1.3,0,2.5,0,3.8&#10;&#9;&#9;C28.8,31.2,28.6,31.2,28.4,31.1 M26.1,28.7c-0.3-0.1-0.6-0.1-0.9-0.2c0-1.2,0-2.4,0-3.5c0.2,0,0.4,0.1,0.6,0.1c0,1.1,0,2.2,0,3.4&#10;&#9;&#9;c0.3,0.1,0.6,0.1,0.9,0.2c0.1,0,0.3,0,0.4,0.1c-0.1,0-0.2,0.1-0.3,0.1c-0.1,0-0.1,0-0.2,0C26.5,28.7,26.3,28.7,26.1,28.7 M30,27.5&#10;&#9;&#9;c0-0.1,0-0.1-0.1-0.2c0-0.7,0-1.4,0-2.1c-2.7-0.4-5.3-1-8-1.5c0-0.1,0-0.1,0-0.2c2.8,0.6,5.7,1.2,8.5,1.7c0,0.8,0,1.6,0,2.4&#10;&#9;&#9;C30.3,27.5,30.2,27.5,30,27.5" class="st5"/>
	<path d="M38.9,34.8c0.7-0.5,1.1-1.3,1.1-2.3c0-1.1,0-2.2,0-3.4c0-0.6,0-1,0.1-1.2c0.1-0.3,0.2-0.4,0.4-0.5&#10;&#9;&#9;c0.2-0.1,0.4-0.2,0.6-0.2c0.1,0,0.2,0,0.3,0c-0.1,0-0.2,0.1-0.3,0.1c-0.2,0.1-0.3,0.3-0.4,0.5c-0.1,0.3-0.1,0.7-0.1,1.2&#10;&#9;&#9;c0,1.1,0,2.2,0,3.4c0,1-0.4,1.7-1.1,2.3c-0.5,0.4-1.1,0.6-1.9,0.6C38.1,35.2,38.6,35.1,38.9,34.8 M36.7,34.6&#10;&#9;&#9;c-0.8-0.1-1.4-0.4-1.8-0.8c-0.4-0.5-0.6-1.1-0.6-2c0-1.5,0-3,0-4.5c0-0.1,0-0.3,0.1-0.4c0.1-0.1,0.2-0.2,0.3-0.2c0.2,0,0.3,0,0.5,0&#10;&#9;&#9;h0c-0.1,0-0.2,0.1-0.2,0.2c-0.1,0.1-0.1,0.2-0.1,0.4c0,1.5,0,3,0,4.5c0,0.9,0.2,1.6,0.6,2c0.4,0.5,1,0.7,1.8,0.8c0.2,0,0.3,0,0.5,0&#10;&#9;&#9;c-0.2,0.1-0.4,0.1-0.6,0.1C36.9,34.6,36.8,34.6,36.7,34.6 M41.7,26.7c-1.2-0.1-2.4-0.2-3.6-0.4c0,0,0-0.1,0-0.1&#10;&#9;&#9;c1.4,0.2,2.8,0.3,4.2,0.4c0,0.2,0,0.3,0,0.5c-0.1,0-0.3,0-0.6,0h0C41.7,27,41.7,26.8,41.7,26.7 M35.7,26.5c-0.1,0-0.1,0-0.1,0&#10;&#9;&#9;c0-0.1,0-0.3,0-0.4c-1.5-0.2-3-0.4-4.4-0.6c0-0.1,0-0.1,0-0.2c1.7,0.3,3.3,0.5,5,0.7c0,0.2,0,0.3,0,0.5&#10;&#9;&#9;C36,26.5,35.9,26.5,35.7,26.5" class="st5"/>
	<path d="M46,38.2c0.4-0.1,0.8-0.3,1.2-0.5c0.3-0.2,0.6-0.5,0.8-0.9c0.2-0.4,0.3-0.8,0.3-1.2c0-2.4,0-4.8,0-7.1&#10;&#9;&#9;c0-0.2,0-0.3,0.1-0.4s0.2-0.2,0.4-0.2c0.2,0,0.3-0.1,0.4-0.1c0.1,0,0.2,0,0.4,0c-0.1,0-0.2,0-0.2,0c-0.2,0-0.3,0.1-0.4,0.2&#10;&#9;&#9;c-0.1,0.1-0.1,0.3-0.1,0.4c0,2.4,0,4.8,0,7.1c0,0.5-0.1,0.9-0.3,1.3c-0.2,0.4-0.5,0.7-0.8,0.9c-0.4,0.2-0.7,0.4-1.2,0.5&#10;&#9;&#9;c-0.2,0.1-0.5,0.1-0.8,0.1C45.9,38.3,46,38.2,46,38.2 M44.1,37.7c-0.1,0-0.3,0-0.4-0.1c-0.1-0.1-0.2-0.1-0.3-0.2c0,0,0-0.1,0-0.1&#10;&#9;&#9;c0.3-0.2,0.5-0.4,0.7-0.6c0.2-0.2,0.3-0.5,0.3-0.7c0-0.3-0.1-0.6-0.3-0.8c-0.2-0.2-0.6-0.4-0.9-0.4c0,0,0,0,0,0&#10;&#9;&#9;c0.2-0.1,0.4-0.1,0.6-0.1c0.4,0,0.7,0.2,0.9,0.4c0.2,0.2,0.4,0.5,0.4,0.8c0,0.3-0.1,0.5-0.3,0.7c-0.2,0.2-0.4,0.4-0.7,0.6&#10;&#9;&#9;c0,0,0,0.1,0,0.1c0,0.1,0.1,0.2,0.3,0.2c0.1,0.1,0.3,0.1,0.4,0.1c0,0,0.1,0,0.1,0c-0.2,0.1-0.3,0.1-0.5,0.1&#10;&#9;&#9;C44.2,37.7,44.2,37.7,44.1,37.7 M49.6,27.1c-1.5-0.1-3.1-0.1-4.6-0.2c0,0,0-0.1,0-0.1c1.7,0.1,3.4,0.2,5.2,0.2c0,0.2,0,0.3,0,0.5&#10;&#9;&#9;c-0.2,0-0.3,0-0.5,0c0,0-0.1,0-0.1,0C49.6,27.5,49.6,27.3,49.6,27.1" class="st5"/>
	<path d="M55.8,35.7c-0.2,0-0.3,0-0.6-0.1c-0.2,0-0.4-0.1-0.5-0.1c-0.2-0.1-0.3-0.2-0.4-0.3c-0.1-0.1-0.1-0.2-0.1-0.4&#10;&#9;&#9;c0-2.1,0-4.3,0-6.4c0-0.1,0-0.3,0.1-0.4c0.1-0.1,0.2-0.2,0.4-0.3c0.1,0,0.3-0.1,0.5-0.1c0.2,0,0.3,0,0.4,0c-0.1,0-0.2,0-0.3,0.1&#10;&#9;&#9;c-0.2,0.1-0.3,0.1-0.4,0.3c-0.1,0.1-0.1,0.2-0.1,0.4c0,2.1,0,4.3,0,6.4c0,0.2,0,0.3,0.1,0.4c0.1,0.1,0.2,0.2,0.3,0.3&#10;&#9;&#9;c0.1,0,0.3,0.1,0.5,0.1c0.2,0,0.4,0.1,0.6,0.1c0,0.2,0,0.3,0,0.5c-0.2,0-0.4,0-0.6,0C55.8,36,55.8,35.9,55.8,35.7 M51,35.6&#10;&#9;&#9;c0.1,0,0.3,0,0.4,0c0,0,0,0,0,0C51.4,35.6,51.2,35.7,51,35.6C51,35.6,51,35.6,51,35.6 M55.8,27.2c-1.6,0-3.2,0-4.8,0&#10;&#9;&#9;c0,0,0-0.1,0-0.1c1.8,0,3.6,0.1,5.4,0c0,0.2,0,0.3,0,0.5c-0.1,0-0.3,0-0.5,0.1c0,0-0.1,0-0.1,0C55.8,27.5,55.8,27.4,55.8,27.2" class="st5"/>
	<path d="M60.6,35.6c-0.2,0-0.4-0.1-0.6-0.1c-0.3-0.1-0.5-0.1-0.6-0.2c-0.2-0.1-0.3-0.3-0.4-0.6&#10;&#9;&#9;c-0.1-0.3-0.1-0.7-0.1-1.2c0-1.4,0-2.8,0-4.2c0.2,0.2,0.4,0.4,0.6,0.7c0,1.2,0,2.3,0,3.5c0,0.5,0,0.9,0.1,1.2&#10;&#9;&#9;c0.1,0.3,0.2,0.5,0.4,0.6c0.1,0.1,0.3,0.2,0.6,0.2c0.3,0.1,0.5,0.1,0.6,0.1c0,0.2,0,0.3,0,0.5c-0.2,0-0.4,0-0.6,0&#10;&#9;&#9;C60.6,35.9,60.6,35.8,60.6,35.6 M66.2,29.4c0-0.5,0-1,0.1-1.2c0.1-0.3,0.2-0.5,0.4-0.6c0.2-0.1,0.4-0.2,0.6-0.3&#10;&#9;&#9;c0.2-0.1,0.4-0.1,0.5-0.1c0-0.2,0-0.3,0-0.5c-1.2,0.1-2.4,0.2-3.6,0.3c0,0,0,0,0,0c1.4-0.1,2.8-0.2,4.2-0.3c0,0.2,0,0.3,0,0.5&#10;&#9;&#9;c-0.1,0-0.3,0.1-0.5,0.1c-0.2,0.1-0.5,0.2-0.6,0.3c-0.2,0.1-0.3,0.3-0.4,0.6c-0.1,0.3-0.1,0.7-0.1,1.2c0,2.1,0,4.3,0,6.4&#10;&#9;&#9;c-0.2,0-0.4,0-0.6,0C66.2,33.6,66.2,31.5,66.2,29.4 M60.1,27.1c-1,0-2,0.1-3.1,0.1c0,0,0,0,0-0.1c1.2,0,2.4-0.1,3.7-0.1&#10;&#9;&#9;c1.5,1.7,3.1,3.5,4.6,5.2c0,0.2,0,0.5,0,0.7C63.6,31,61.9,29.1,60.1,27.1" class="st5"/>
	<path d="M77.4,34.5c0.1-0.9,0.1-1.7,0.2-2.6c0-0.1,0.1-0.2,0.1-0.3c0.2,0,0.3-0.1,0.5-0.1c-0.1,0.9-0.1,1.9-0.2,2.8&#10;&#9;&#9;c-1.7,0.3-3.4,0.5-5.1,0.7C74.4,34.9,75.9,34.7,77.4,34.5 M72.5,34.4c-0.1-0.1-0.2-0.2-0.2-0.3c0-0.1-0.1-0.4-0.1-0.6&#10;&#9;&#9;c0-0.9,0-1.7,0-2.6c0.2,0,0.4,0,0.6-0.1c0,0.9,0,1.7,0,2.6c0,0.3,0,0.5,0.1,0.6c0,0.2,0.1,0.3,0.2,0.3c0.1,0.1,0.3,0.1,0.5,0.1&#10;&#9;&#9;c0.1,0,0.3,0,0.4,0c-0.1,0-0.2,0-0.2,0c-0.3,0-0.6,0.1-0.8,0.1C72.8,34.5,72.7,34.4,72.5,34.4 M75.5,31.7c0-1.1,0-2.1,0-3.2&#10;&#9;&#9;c0-0.1,0.1-0.2,0.1-0.3c0.2,0,0.4,0,0.5-0.1c0,1.3,0,2.5,0,3.8c-0.2,0-0.3,0.1-0.5,0.1C75.5,31.9,75.5,31.8,75.5,31.7 M73.2,30.7&#10;&#9;&#9;c0,0,0.1,0,0.1,0c-0.1,0-0.2,0-0.3,0C73.1,30.7,73.1,30.7,73.2,30.7 M72.2,26.7c0.2,0,0.4,0,0.6-0.1c0,1.2,0,2.3,0,3.5&#10;&#9;&#9;c0.1,0,0.1,0,0.2,0c-0.3,0-0.5,0.1-0.8,0.1C72.2,29,72.2,27.9,72.2,26.7 M76.9,27.7c0-0.7,0-1.4,0-2.1c0.2,0,0.4-0.1,0.6-0.1&#10;&#9;&#9;c0,0.8,0,1.5,0,2.3c-0.2,0-0.4,0-0.5,0.1C77,27.8,76.9,27.7,76.9,27.7 M73.6,26.5c0.1,0,0.2,0,0.3,0c-0.3,0-0.6,0.1-0.8,0.1&#10;&#9;&#9;C73.3,26.6,73.5,26.6,73.6,26.5 M69,26.5c1.3-0.1,2.6-0.3,3.9-0.4C71.6,26.2,70.3,26.4,69,26.5C69,26.5,69,26.5,69,26.5" class="st5"/>
	<path d="M80.6,33.9c1.6-0.3,3.2-0.6,4.7-0.9c0-0.2,0-0.3,0-0.5c-0.2,0-0.3,0-0.6,0c-0.2,0-0.4,0-0.5,0&#10;&#9;&#9;c-0.2,0-0.3-0.1-0.3-0.2c-0.1-0.1-0.1-0.2-0.1-0.4c0-2.4,0-4.7,0-7.1c0.1,0,0.2,0,0.3-0.1c0.2,0,0.3-0.1,0.5-0.1&#10;&#9;&#9;c0.2,0,0.4-0.1,0.5-0.1c0,0,0,0,0,0c-0.2,0-0.4,0.1-0.5,0.1c-0.1,0-0.2,0-0.3,0.1c0,2.4,0,4.7,0,7.1c0,0.2,0,0.3,0.1,0.4&#10;&#9;&#9;c0.1,0.1,0.2,0.2,0.3,0.2c0.1,0,0.3,0,0.5,0c0.2,0,0.4,0,0.6,0c0,0.2,0,0.3,0,0.5C84.1,33.3,82.4,33.6,80.6,33.9&#10;&#9;&#9;C80.6,33.9,80.6,33.9,80.6,33.9 M78.6,27.6c0.1-0.4,0.3-0.7,0.6-1.2c0.3-0.5,0.6-0.8,0.8-0.9c0.1,0,0.3-0.1,0.5-0.1&#10;&#9;&#9;c0.2-0.1,0.4-0.1,0.5-0.1c0.1,0,0.2,0,0.3-0.1c0,0,0,0,0,0c-0.1,0-0.2,0-0.3,0.1c-0.2,0.1-0.4,0.1-0.5,0.1&#10;&#9;&#9;c-0.3,0.1-0.5,0.4-0.8,0.9c-0.3,0.5-0.5,0.9-0.7,1.3c-0.2,0-0.4,0.1-0.5,0.1C78.6,27.8,78.6,27.7,78.6,27.6 M87.3,26&#10;&#9;&#9;c0-0.8,0-1.6,0-2.4c0.2,0,0.4-0.1,0.6-0.1c0,0.9,0,1.7,0,2.6c-0.2,0-0.4,0.1-0.5,0.1C87.3,26.1,87.3,26.1,87.3,26" class="st5"/>
	<g>
		<defs>
			<path d="M26.5,33.5C26.5,33.5,26.5,33.5,26.5,33.5C26.5,33.5,26.5,33.5,26.5,33.5L26.5,33.5" id="SVGID_4_"/>
		</defs>
		<clipPath id="SVGID_5_">
			
		</clipPath>
		<g style="clip-path:url(#SVGID_5_);">
			
				<image transform="matrix(8.669607e-002 0 0 8.669608e-002 26.4087 33.3091)" xlink:href="8614B3B0.jpg" height="4" width="3" style="overflow:visible;">
			</image>
		</g>
	</g>
	<g>
		<defs>
			<path d="M26.5,33.5c0-0.1,0-0.2,0-0.3C26.5,33.3,26.5,33.4,26.5,33.5L26.5,33.5 M25.2,32c0-1,0-2,0-3&#10;&#9;&#9;&#9;&#9;c0.2,0,0.4,0.1,0.6,0.1c-0.2,0-0.4-0.1-0.6-0.1C25.2,30,25.2,31,25.2,32L25.2,32 M28.3,30.8c0-1,0-2.1,0-3.1&#10;&#9;&#9;&#9;&#9;C28.3,28.7,28.3,29.7,28.3,30.8L28.3,30.8 M25.2,28.5c0-1.2,0-2.4,0-3.5c0.2,0,0.4,0.1,0.6,0.1c-0.2,0-0.4-0.1-0.6-0.1&#10;&#9;&#9;&#9;&#9;C25.2,26.1,25.2,27.3,25.2,28.5L25.2,28.5 M29.9,27.3c0-0.7,0-1.4,0-2.1C29.9,25.9,29.9,26.6,29.9,27.3L29.9,27.3" id="SVGID_6_"/>
		</defs>
		<clipPath id="SVGID_7_">
			
		</clipPath>
		<g style="clip-path:url(#SVGID_7_);">
			
				<image transform="matrix(8.669607e-002 0 0 8.669608e-002 25.0234 24.8228)" xlink:href="8614B3B1.jpg" height="101" width="58" style="overflow:visible;">
			</image>
		</g>
	</g>
	<path d="M21.4,32.6c0-0.2,0-0.3,0-0.5c0.1,0,0.3,0,0.5,0.1c0.2,0,0.4,0,0.4,0c0.2,0,0.3-0.1,0.3-0.2&#10;&#9;&#9;c0.1-0.1,0.1-0.2,0.1-0.4c0-2.1,0-4.2,0-6.4c0-0.1,0-0.3-0.1-0.4c-0.1-0.1-0.2-0.2-0.3-0.3c-0.1-0.1-0.3-0.2-0.5-0.3&#10;&#9;&#9;c-0.2-0.1-0.4-0.1-0.5-0.2c0-0.2,0-0.3,0-0.5c2.8,0.6,5.7,1.2,8.5,1.7c0,0.8,0,1.6,0,2.4c-0.2,0-0.3-0.1-0.5-0.1&#10;&#9;&#9;c-0.1-0.4-0.4-0.8-0.7-1.2c-0.3-0.5-0.6-0.7-0.9-0.8c-0.1,0-0.3-0.1-0.5-0.1c-0.2-0.1-0.4-0.1-0.6-0.1c-0.5-0.1-1-0.2-1.5-0.3&#10;&#9;&#9;c0,1.2,0,2.4,0,3.5c0.3,0.1,0.6,0.1,0.9,0.2c0.3,0.1,0.5,0.1,0.7,0c0.2,0,0.4-0.1,0.5-0.2c0.1-0.1,0.2-0.2,0.3-0.5&#10;&#9;&#9;c0.1-0.2,0.2-0.4,0.2-0.6c0.2,0,0.3,0.1,0.5,0.1c0,1.3,0,2.5,0,3.8c-0.2,0-0.3-0.1-0.5-0.1c0-0.2-0.1-0.4-0.2-0.7&#10;&#9;&#9;c-0.1-0.3-0.2-0.5-0.3-0.6c-0.1-0.2-0.3-0.3-0.5-0.4c-0.2-0.1-0.4-0.2-0.7-0.2c-0.3-0.1-0.6-0.1-0.9-0.2c0,1,0,2,0,3&#10;&#9;&#9;c0,0.2,0,0.3,0.1,0.4c0.1,0.1,0.2,0.2,0.3,0.3c0.1,0.1,0.2,0.1,0.4,0.2c0.2,0.1,0.3,0.1,0.5,0.2c0,0.2,0,0.3,0,0.5&#10;&#9;&#9;C24.8,33.3,23.1,33,21.4,32.6" class="st4"/>
	<g>
		<defs>
			<path d="M31.8,32c0,0.1,0,0.1,0,0.2C31.9,32.1,31.9,32.1,31.8,32" id="SVGID_8_"/>
		</defs>
		<clipPath id="SVGID_9_">
			
		</clipPath>
		<g style="clip-path:url(#SVGID_9_);" transform="matrix(1 0 0 1 -1.907349e-006 0)">
			
				<image transform="matrix(8.669607e-002 0 0 8.669608e-002 31.6914 31.9243)" xlink:href="8614B3B7.jpg" height="4" width="4" style="overflow:visible;">
			</image>
		</g>
	</g>
	<g>
		<defs>
			<path d="M37.2,35.4c0.2,0,0.3,0,0.5-0.1C37.5,35.4,37.3,35.4,37.2,35.4L37.2,35.4" id="SVGID_10_"/>
		</defs>
		<clipPath id="SVGID_11_">
			
		</clipPath>
		<g style="clip-path:url(#SVGID_11_);">
			
				<image transform="matrix(8.669607e-002 0 0 8.669608e-002 37.0669 35.2148)" xlink:href="8614B3B2.jpg" height="4" width="8" style="overflow:visible;">
			</image>
		</g>
	</g>
	<path d="M36.1,35.4c-1.4-0.2-2.4-0.6-3.2-1.3c-0.8-0.7-1.1-1.6-1.1-2.6c0-1.5,0-3.1,0-4.6c0-0.1,0-0.3-0.1-0.4&#10;&#9;&#9;c-0.1-0.1-0.2-0.2-0.3-0.3c-0.1-0.1-0.3-0.1-0.4-0.2c-0.2-0.1-0.3-0.1-0.4-0.1c0-0.2,0-0.3,0-0.5c1.7,0.3,3.3,0.5,5,0.7&#10;&#9;&#9;c0,0.2,0,0.3,0,0.5c-0.1,0-0.3,0-0.4,0c-0.2,0-0.3,0-0.5,0c-0.2,0-0.3,0.1-0.3,0.2c-0.1,0.1-0.1,0.2-0.1,0.4c0,1.5,0,3,0,4.5&#10;&#9;&#9;c0,0.9,0.2,1.6,0.6,2c0.4,0.5,1,0.7,1.8,0.8c0.8,0.1,1.4-0.1,1.8-0.5c0.4-0.4,0.7-1,0.7-1.9c0-1,0-2,0-3.1c0-0.5,0-0.9-0.1-1.2&#10;&#9;&#9;c-0.1-0.3-0.2-0.5-0.4-0.6c-0.1-0.1-0.3-0.2-0.6-0.3c-0.3-0.1-0.5-0.2-0.6-0.2c0-0.2,0-0.3,0-0.5c1.4,0.2,2.8,0.3,4.2,0.4&#10;&#9;&#9;c0,0.2,0,0.3,0,0.5c-0.1,0-0.3,0-0.6,0c-0.2,0-0.5,0.1-0.6,0.2c-0.2,0.1-0.3,0.3-0.4,0.5C40,28.2,40,28.6,40,29.2&#10;&#9;&#9;c0,1.1,0,2.2,0,3.4c0,1-0.4,1.7-1.1,2.3c-0.6,0.4-1.3,0.6-2.1,0.6C36.6,35.4,36.3,35.4,36.1,35.4" class="st4"/>
	<path d="M44.6,38.3c-0.8-0.1-1.5-0.3-2.1-0.7c-0.5-0.4-0.8-1-0.8-1.6c0-0.4,0.1-0.7,0.4-0.9c0.2-0.2,0.6-0.3,1-0.3&#10;&#9;&#9;c0.4,0,0.7,0.2,0.9,0.4c0.2,0.2,0.3,0.5,0.3,0.8c0,0.3-0.1,0.5-0.3,0.7c-0.2,0.2-0.4,0.4-0.7,0.6c0,0,0,0.1,0,0.1&#10;&#9;&#9;c0,0.1,0.1,0.2,0.3,0.2c0.1,0.1,0.3,0.1,0.4,0.1c0.5,0,1-0.1,1.3-0.5c0.3-0.3,0.5-0.9,0.5-1.6c0-2.4,0-4.8,0-7.3&#10;&#9;&#9;c0-0.1,0-0.3-0.1-0.4c-0.1-0.1-0.2-0.2-0.4-0.3c-0.1-0.1-0.3-0.1-0.5-0.2c-0.2-0.1-0.4-0.1-0.5-0.1c0-0.2,0-0.3,0-0.5&#10;&#9;&#9;c1.7,0.1,3.5,0.2,5.2,0.2c0,0.2,0,0.3,0,0.5c-0.2,0-0.3,0-0.5,0c-0.1,0-0.3,0-0.4,0.1c-0.2,0-0.3,0.1-0.4,0.2s-0.1,0.3-0.1,0.4&#10;&#9;&#9;c0,2.4,0,4.8,0,7.1c0,0.5-0.1,0.9-0.3,1.2c-0.2,0.4-0.5,0.7-0.8,0.9c-0.4,0.2-0.7,0.4-1.2,0.5c-0.3,0.1-0.7,0.1-1.1,0.1&#10;&#9;&#9;C44.9,38.4,44.8,38.3,44.6,38.3" class="st4"/>
	<path d="M50.4,36.2c0-0.2,0-0.3,0-0.5c0.1,0,0.3,0,0.5,0c0.2,0,0.4,0,0.5-0.1c0.2-0.1,0.3-0.1,0.3-0.2&#10;&#9;&#9;c0.1-0.1,0.1-0.2,0.1-0.4c0-2.1,0-4.3,0-6.4c0-0.1,0-0.3-0.1-0.4c-0.1-0.1-0.2-0.2-0.4-0.3c-0.1,0-0.3-0.1-0.5-0.1&#10;&#9;&#9;c-0.2,0-0.4-0.1-0.6-0.1c0-0.2,0-0.3,0-0.5c1.8,0,3.6,0.1,5.4,0c0,0.2,0,0.3,0,0.5c-0.1,0-0.3,0-0.5,0.1c-0.2,0-0.4,0.1-0.5,0.1&#10;&#9;&#9;c-0.2,0.1-0.3,0.1-0.4,0.3c-0.1,0.1-0.1,0.3-0.1,0.4c0,2.1,0,4.3,0,6.4c0,0.2,0,0.3,0.1,0.4c0.1,0.1,0.2,0.2,0.4,0.3&#10;&#9;&#9;c0.1,0,0.3,0.1,0.5,0.1c0.2,0,0.4,0.1,0.6,0.1c0,0.2,0,0.3,0,0.5c-0.5,0-1,0-1.5,0C53,36.2,51.7,36.2,50.4,36.2" class="st4"/>
	<g>
		<defs>
			<path d="M58.4,36.2c0.8,0,1.5,0,2.3-0.1c0,0,0,0,0-0.1c0,0,0,0,0,0.1C59.9,36.1,59.1,36.2,58.4,36.2L58.4,36.2" id="SVGID_12_"/>
		</defs>
		<clipPath id="SVGID_13_">
			
		</clipPath>
		<g style="clip-path:url(#SVGID_13_);">
			
				<image transform="matrix(8.669607e-002 0 0 8.669608e-002 58.2021 35.9067)" xlink:href="8614B3B3.jpg" height="5" width="30" style="overflow:visible;">
			</image>
		</g>
	</g>
	<g>
		<defs>
			<path d="M65.6,35.9c0.2,0,0.3,0,0.5,0c0,0,0,0,0,0c0,0,0,0,0,0C66,35.8,65.8,35.8,65.6,35.9L65.6,35.9 M62.5,33.2&#10;&#9;&#9;&#9;&#9;c0.1,0.2,0.3,0.3,0.4,0.4C62.8,33.5,62.7,33.4,62.5,33.2" id="SVGID_14_"/>
		</defs>
		<clipPath id="SVGID_15_">
			
		</clipPath>
		<g style="clip-path:url(#SVGID_15_);">
			
				<image transform="matrix(8.669607e-002 0 0 8.669608e-002 62.3604 33.1367)" xlink:href="8614B3BE.jpg" height="33" width="45" style="overflow:visible;">
			</image>
		</g>
	</g>
	<g>
		<defs>
			<path d="M58.9,33.5c0-1.4,0-2.8,0-4.2c0.2,0.2,0.4,0.4,0.6,0.7c-0.2-0.2-0.4-0.4-0.6-0.7&#10;&#9;&#9;&#9;&#9;C58.9,30.7,58.9,32.1,58.9,33.5L58.9,33.5" id="SVGID_16_"/>
		</defs>
		<clipPath id="SVGID_17_">
			
		</clipPath>
		<g style="clip-path:url(#SVGID_17_);" transform="matrix(1 0 0 1 -3.814697e-006 -1.907349e-006)">
			
				<image transform="matrix(8.669607e-002 0 0 8.669608e-002 58.8071 29.1509)" xlink:href="8614B3BF.jpg" height="51" width="10" style="overflow:visible;">
			</image>
		</g>
	</g>
	<path d="M56.5,35.7c0.2,0,0.4,0,0.6-0.1c0.2-0.1,0.4-0.1,0.6-0.2c0.2-0.1,0.3-0.3,0.4-0.6c0.1-0.3,0.1-0.7,0.1-1.3&#10;&#9;&#9;c0-1.4,0-2.9,0-4.3c0-0.2,0-0.4-0.1-0.6c-0.1-0.2-0.2-0.3-0.3-0.5c-0.2-0.1-0.3-0.3-0.5-0.3c-0.2-0.1-0.4-0.1-0.7-0.2&#10;&#9;&#9;c0-0.2,0-0.3,0-0.5c1.2,0,2.4,0,3.7-0.1c1.8,2,3.5,3.9,5.2,5.8c0-1.1,0-2.3,0-3.4c0-0.5,0-0.9-0.1-1.2c-0.1-0.3-0.2-0.4-0.4-0.6&#10;&#9;&#9;c-0.1-0.1-0.3-0.2-0.6-0.2c-0.3-0.1-0.5-0.1-0.6-0.1c0-0.2,0-0.3,0-0.5c1.4-0.1,2.8-0.2,4.2-0.3c0,0.2,0,0.3,0,0.5&#10;&#9;&#9;c-0.1,0-0.3,0.1-0.5,0.1c-0.2,0.1-0.4,0.2-0.6,0.3c-0.2,0.1-0.3,0.3-0.4,0.6c-0.1,0.3-0.1,0.7-0.1,1.2c0,2.2,0,4.3,0,6.5&#10;&#9;&#9;c-0.4,0-0.8,0.1-1.2,0.1c-2-2.2-4-4.4-6-6.7c0,1.4,0,2.8,0,4.2c0,0.5,0,0.9,0.1,1.2c0.1,0.3,0.2,0.5,0.4,0.6&#10;&#9;&#9;c0.1,0.1,0.3,0.2,0.6,0.2c0.3,0.1,0.5,0.1,0.6,0.1c0,0.2,0,0.3,0,0.5c-1.4,0.1-2.8,0.1-4.2,0.1C56.5,36.1,56.5,35.9,56.5,35.7" class="st4"/>
	<g>
		<defs>
			<path d="M69.5,35.5c1.1-0.1,2.3-0.2,3.4-0.4C71.8,35.2,70.6,35.4,69.5,35.5L69.5,35.5" id="SVGID_18_"/>
		</defs>
		<clipPath id="SVGID_19_">
			
		</clipPath>
		<g style="clip-path:url(#SVGID_19_);">
			
				<image transform="matrix(8.669607e-002 0 0 8.669608e-002 69.375 34.9575)" xlink:href="8614B3B4.jpg" height="7" width="42" style="overflow:visible;">
			</image>
		</g>
	</g>
	<g>
		<defs>
			<path d="M75.5,31.7c0-1.1,0-2.1,0-3.2C75.5,29.6,75.5,30.6,75.5,31.7L75.5,31.7" id="SVGID_20_"/>
		</defs>
		<clipPath id="SVGID_21_">
			
		</clipPath>
		<g style="clip-path:url(#SVGID_21_);">
			
				<image transform="matrix(8.669607e-002 0 0 8.669608e-002 75.3525 28.3721)" xlink:href="8614B3B5.jpg" height="40" width="3" style="overflow:visible;">
			</image>
		</g>
	</g>
	<g>
		<defs>
			<path d="M76.9,27.7c0-0.7,0-1.4,0-2.1C76.9,26.2,76.9,27,76.9,27.7L76.9,27.7" id="SVGID_22_"/>
		</defs>
		<clipPath id="SVGID_23_">
			
		</clipPath>
		<g style="clip-path:url(#SVGID_23_);">
			
				<image transform="matrix(8.669607e-002 0 0 8.669608e-002 76.8252 25.4263)" xlink:href="60FDF8CF.jpg" height="27" width="3" style="overflow:visible;">
			</image>
		</g>
	</g>
	<path d="M68.4,35.1c0.1,0,0.3-0.1,0.5-0.1c0.2,0,0.4-0.1,0.5-0.1c0.2-0.1,0.3-0.2,0.3-0.3c0.1-0.1,0.1-0.3,0.1-0.4&#10;&#9;&#9;c0-2.1,0-4.2,0-6.4c0-0.2,0-0.3-0.1-0.4c-0.1-0.1-0.2-0.2-0.4-0.2c-0.1,0-0.3-0.1-0.5-0.1c-0.2,0-0.4,0-0.5,0c0-0.2,0-0.3,0-0.5&#10;&#9;&#9;c2.8-0.3,5.7-0.6,8.5-1.1c0,0.8,0,1.5,0,2.3c-0.2,0-0.4,0-0.5,0.1c-0.1-0.3-0.4-0.6-0.7-1c-0.3-0.3-0.6-0.5-1-0.5&#10;&#9;&#9;c-0.1,0-0.3,0-0.6,0c-0.2,0-0.4,0-0.6,0.1c-0.5,0.1-0.9,0.1-1.4,0.2c0,1.2,0,2.3,0,3.5c0.3,0,0.7-0.1,1-0.1c0.3,0,0.5-0.1,0.7-0.2&#10;&#9;&#9;c0.2-0.1,0.4-0.2,0.6-0.4c0.1-0.1,0.2-0.3,0.3-0.6c0.1-0.3,0.2-0.5,0.2-0.7c0.2,0,0.4,0,0.5-0.1c0,1.3,0,2.5,0,3.8&#10;&#9;&#9;c-0.2,0-0.3,0-0.5,0.1c0-0.2-0.1-0.4-0.2-0.6c-0.1-0.3-0.2-0.4-0.3-0.5c-0.1-0.1-0.3-0.2-0.5-0.2c-0.2,0-0.4,0-0.7,0&#10;&#9;&#9;c-0.3,0-0.6,0.1-1,0.1c0,0.9,0,1.7,0,2.6c0,0.3,0,0.5,0.1,0.6c0,0.2,0.1,0.3,0.2,0.3c0.1,0.1,0.3,0.1,0.5,0.1c0.2,0,0.5,0,0.8-0.1&#10;&#9;&#9;c0.2,0,0.3,0,0.6-0.1c0.2,0,0.4-0.1,0.6-0.1c0.2,0,0.4-0.1,0.5-0.2c0.2-0.1,0.3-0.1,0.4-0.2c0.2-0.2,0.5-0.6,0.7-1.1&#10;&#9;&#9;c0.3-0.5,0.4-0.8,0.5-1c0.2,0,0.3-0.1,0.5-0.1c-0.1,0.9-0.1,1.9-0.2,2.8c-3,0.5-6,0.8-9,1.1C68.4,35.4,68.4,35.2,68.4,35.1" class="st4"/>
	<g>
		<defs>
			<path d="M80.6,33.9c1.6-0.3,3.2-0.6,4.7-0.9c0-0.2,0-0.3,0-0.5c0,0.2,0,0.3,0,0.5C83.7,33.3,82.2,33.6,80.6,33.9&#10;&#9;&#9;&#9;&#9;L80.6,33.9" id="SVGID_24_"/>
		</defs>
		<clipPath id="SVGID_25_">
			
		</clipPath>
		<g style="clip-path:url(#SVGID_25_);">
			
				<image transform="matrix(8.669607e-002 0 0 8.669608e-002 80.4648 32.3564)" xlink:href="60FDF8CD.jpg" height="20" width="57" style="overflow:visible;">
			</image>
		</g>
	</g>
	<g>
		<defs>
			<path d="M78.6,27.6c0.1-0.4,0.3-0.7,0.6-1.2c0.3-0.5,0.6-0.8,0.8-0.9c0.1,0,0.3-0.1,0.5-0.1&#10;&#9;&#9;&#9;&#9;c0.2-0.1,0.4-0.1,0.5-0.1c0.1,0,0.2,0,0.3-0.1c-0.1,0-0.2,0-0.3,0.1c-0.2,0-0.3,0.1-0.5,0.1c-0.2,0-0.4,0.1-0.5,0.1&#10;&#9;&#9;&#9;&#9;c-0.3,0.1-0.5,0.4-0.8,0.9C79,26.9,78.8,27.3,78.6,27.6L78.6,27.6" id="SVGID_26_"/>
		</defs>
		<clipPath id="SVGID_27_">
			
		</clipPath>
		<g style="clip-path:url(#SVGID_27_);" transform="matrix(1 0 0 1 0 -1.907349e-006)">
			
				<image transform="matrix(8.669607e-002 0 0 8.669608e-002 78.4692 25.165)" xlink:href="60FDF8CB.jpg" height="30" width="36" style="overflow:visible;">
			</image>
		</g>
	</g>
	<path d="M80,33.5c0.1,0,0.3-0.1,0.6-0.1c0.2-0.1,0.4-0.1,0.5-0.2c0.2-0.1,0.3-0.2,0.3-0.3c0.1-0.1,0.1-0.3,0.1-0.4&#10;&#9;&#9;c0-2.4,0-4.8,0-7.1c-0.1,0-0.2,0-0.3,0.1c-0.2,0-0.3,0.1-0.5,0.1c-0.2,0-0.4,0.1-0.5,0.1c-0.3,0.1-0.5,0.4-0.8,0.9&#10;&#9;&#9;c-0.3,0.5-0.5,0.9-0.7,1.3c-0.2,0-0.3,0.1-0.5,0.1c0-0.9,0-1.7,0-2.6c3.1-0.5,6.2-1.1,9.2-1.8c0,0.9,0,1.7,0,2.6&#10;&#9;&#9;c-0.2,0-0.3,0.1-0.5,0.1c-0.1-0.4-0.4-0.7-0.7-1.1c-0.3-0.4-0.6-0.5-0.8-0.5c-0.1,0-0.3,0-0.5,0.1c-0.2,0-0.4,0.1-0.5,0.1&#10;&#9;&#9;c-0.1,0-0.2,0-0.3,0.1c0,2.4,0,4.7,0,7.1c0,0.2,0,0.3,0.1,0.4c0.1,0.1,0.2,0.2,0.3,0.2c0.1,0,0.3,0,0.5,0c0.2,0,0.4,0,0.6,0&#10;&#9;&#9;c0,0.2,0,0.3,0,0.5c-1.8,0.4-3.5,0.7-5.3,1C80,33.9,80,33.7,80,33.5" class="st4"/>
</g>
</svg>